<?xml version="1.0" encoding="iso-8859-1"?>
<!-- Generator: Adobe Illustrator 19.0.0, SVG Export Plug-In . SVG Version: 6.00 Build 0)  -->
<svg version="1.1" id="Capa_1" xmlns="http://www.w3.org/2000/svg" xmlns:xlink="http://www.w3.org/1999/xlink" x="0px" y="0px"
	 viewBox="0 0 503.77 503.77" style="enable-background:new 0 0 503.77 503.77;" xml:space="preserve">
<g>
	<path style="fill:#010002;" d="M22.733,228.538c0.211,10.659,11.106,18.987,26.031,20.022c7.383,1.712,28.683,2.005,86.198,2.047
		c19.765,0.015,40.204,0.029,55.796,0.279c0.042,0.002,0.086,0.002,0.128,0.002c0.601,0,1.199-0.067,1.783-0.204
		c29.226-6.745,59.073-13.401,87.938-19.838c57.856-12.902,117.683-26.242,175.646-41.014c0.124-0.031,0.248-0.066,0.372-0.104
		c22.41-6.885,49.087-29.466,45.663-43.126c-5.337-21.297-53.603-31.146-101.355-20.637c-21.617,4.991-68.055,15.814-92.397,21.596
		c-15.92-1.434-144.686-56.991-173.617-70.124c-1.603-0.727-3.403-0.903-5.12-0.492c-6.046,1.443-10.67,2.488-15.306,3.536
		c-4.643,1.047-9.293,2.098-15.355,3.545c-3.073,0.732-5.419,3.219-5.969,6.331c-0.552,3.111,0.796,6.251,3.432,7.996
		c16.461,10.894,65.308,43.974,108.736,73.881c-1.67,0.403-3.264,0.787-4.803,1.157c-13.967,3.361-23.428,5.638-43.823,10.35
		l-44.978-4.197l-78.246-51.237c-1.84-1.208-4.097-1.599-6.229-1.069L6.044,132.43c-2.361,0.579-4.326,2.208-5.332,4.419
		c-1.007,2.213-0.944,4.763,0.171,6.923l35.24,68.244C26.272,215.625,22.611,222.412,22.733,228.538z M19.598,145.441l8.082-1.978
		l77.009,50.43c1.082,0.707,2.319,1.14,3.607,1.26l48.215,4.497c0.836,0.078,1.692,0.024,2.519-0.169
		c21.331-4.923,30.92-7.229,45.213-10.67c6.078-1.463,13.011-3.131,22.067-5.293c3.044-0.727,5.375-3.177,5.951-6.251
		c0.577-3.076-0.709-6.204-3.281-7.984c-37.311-25.82-82.432-56.504-108.339-73.932c3.148-0.712,6.41-1.459,10.213-2.355
		c10.896,4.847,48.958,21.532,86.401,37.158c84.59,35.306,90.421,33.922,94.269,33c24.118-5.732,71.177-16.703,92.896-21.718
		c46.086-10.142,77.996,1.672,82.093,8.157c-2.494,5.454-17,19.515-34.37,24.918c-57.674,14.692-117.311,27.991-174.991,40.854
		c-28.581,6.373-58.129,12.962-87.109,19.647c-15.581-0.239-35.65-0.253-55.071-0.266c-32.042-0.024-75.841-0.055-82.231-1.505
		c-0.749-0.273-1.534-0.434-2.33-0.474c-7.251-0.362-10.814-3.135-11.658-4.361c0.88-0.812,3.71-2.368,9.882-2.925
		c2.628-0.237,4.969-1.767,6.239-4.08c1.271-2.315,1.308-5.109,0.097-7.455L19.598,145.441z"/>
	<path style="fill:#010002;" d="M495.839,411.182H12.975c-4.381,0-7.931,3.55-7.931,7.931s3.55,7.931,7.931,7.931h482.864
		c4.381,0,7.931-3.55,7.931-7.931S500.22,411.182,495.839,411.182z"/>
</g>
<g>
</g>
<g>
</g>
<g>
</g>
<g>
</g>
<g>
</g>
<g>
</g>
<g>
</g>
<g>
</g>
<g>
</g>
<g>
</g>
<g>
</g>
<g>
</g>
<g>
</g>
<g>
</g>
<g>
</g>
</svg>
